{"title":"The Legend of Korra Book 3 Official Trailer.mp4","uid":10357788,"size":38631070,"categoryP":"video","categoryS":"hd___tv_shows","magnet":"?xt=urn:btih:4c37565243899126c96a12fe197cf88368b99c41&amp;dn=The+Legend+of+Korra+Book+3+Official+Trailer.mp4&amp;tr=udp%3A%2F%2Ftracker.openbittorrent.com%3A80&amp;tr=udp%3A%2F%2Fopen.demonii.com%3A1337&amp;tr=udp%3A%2F%2Ftracker.coppersurfer.tk%3A6969&amp;tr=udp%3A%2F%2Fexodus.desync.com%3A6969","seeders":1,"leechers":0,"uploader":"frostyon420","files":-1,"time":1402766563,"description":"trailer for book 3 ripped from youtube. release date is confirmed. http://www.kdramastars.com/articles/24963/20140614/legend-of-korra-season-3-release-date.htm IF U LIVE IN SAN DIEGO LIKE ME, THEN ILL SEE U AT COMIC CON ;)\n\nComplete name                            : C:UsersPhr0stYsDownloadsVideoThe Legend of Korra Book 3 Official Trailer.mp4\nFormat                                   : MPEG-4\nFormat profile                           : Base Media\nCodec ID                                 : isom\nFile size                                : 36.8 MiB\nDuration                                 : 2mn 4s\nOverall bit rate mode                    : Variable\nOverall bit rate                         : 2 477 Kbps\nEncoded date                             : UTC 2014-06-12 05:46:52\nTagged date                              : UTC 2014-06-12 05:46:52\n\nVideo\nID                                       : 1\nFormat                                   : AVC\nFormat/Info                              : Advanced Video Codec\nFormat profile                           : &lt;a class=&quot;__cf_email__&quot; href=&quot;/cdn-cgi/l/email-protection&quot; data-cfemail=&quot;5b13323c331b176f756b&quot;&gt;[email&amp;#160;protected]&lt;/a&gt;&lt;script cf-hash='f9e31' type=&quot;text/javascript&quot;&gt;\n/* &lt;![CDATA[ */!function(){try{var t=&quot;currentScript&quot;in document?document.currentScript:function(){for(var t=document.getElementsByTagName(&quot;script&quot;),e=t.length;e--;)if(t[e].getAttribute(&quot;cf-hash&quot;))return t[e]}();if(t&amp;&amp;t.previousSibling){var e,r,n,i,c=t.previousSibling,a=c.getAttribute(&quot;data-cfemail&quot;);if(a){for(e=&quot;&quot;,r=parseInt(a.substr(0,2),16),n=2;a.length-n;n+=2)i=parseInt(a.substr(n,2),16)^r,e+=String.fromCharCode(i);e=document.createTextNode(e),c.parentNode.replaceChild(e,c)}}}catch(u){}}();/* ]]&gt; */&lt;/script&gt;\nFormat settings, CABAC                   : Yes\nFormat settings, ReFrames                : 3 frames\nCodec ID                                 : avc1\nCodec ID/Info                            : Advanced Video Coding\nDuration                                 : 2mn 4s\nBit rate                                 : 2 380 Kbps\nWidth                                    : 1 920 pixels\nHeight                                   : 1 080 pixels\nDisplay aspect ratio                     : 16:9\nFrame rate mode                          : Variable\nFrame rate                               : 23.976 fps\nMinimum frame rate                       : 23.974 fps\nMaximum frame rate                       : 1 267.606 fps\nColor space                              : YUV\nChroma subsampling                       : 4:2:0\nBit depth                                : 8 bits\nScan type                                : Progressive\nBits/(Pixel*Frame)                       : 0.048\nStream size                              : 35.4 MiB (96%)\nEncoded date                             : UTC 2014-06-12 05:46:52\nTagged date                              : UTC 2014-06-12 05:46:52\n\nAudio\nID                                       : 2\nFormat                                   : AAC\nFormat/Info                              : Advanced Audio Codec\nFormat profile                           : LC\nCodec ID                                 : 40\nDuration                                 : 2mn 4s\nBit rate mode                            : Variable\nBit rate                                 : 93.6 Kbps\nChannel(s)                               : 1 channel\nChannel positions                        : Front: C\nSampling rate                            : 44.1 KHz\nCompression mode                         : Lossy\nStream size                              : 1.39 MiB (4%)\nEncoded date                             : UTC 2014-06-12 05:43:36\nTagged date                              : UTC 2014-06-12 05:43:36\n\n","torrent":{"xt":"urn:btih:4c37565243899126c96a12fe197cf88368b99c41","amp;dn":"The+Legend+of+Korra+Book+3+Official+Trailer.mp4","amp;tr":["udp%3A%2F%2Ftracker.openbittorrent.com%3A80","udp%3A%2F%2Fopen.demonii.com%3A1337","udp%3A%2F%2Ftracker.coppersurfer.tk%3A6969","udp%3A%2F%2Fexodus.desync.com%3A6969"],"infoHash":"4c37565243899126c96a12fe197cf88368b99c41","infoHashBuffer":{"type":"Buffer","data":[76,55,86,82,67,137,145,38,201,106,18,254,25,124,248,131,104,185,156,65]},"announce":[],"urlList":[]}}